<svg width="351" height="40" viewBox="0 0 351 40" fill="none" xmlns="http://www.w3.org/2000/svg">
<path d="M50.237 25.7151C50.237 27.9487 50.9615 29.989 52.2848 31.471C53.6075 32.9529 55.5285 33.877 57.9212 33.877C60.2211 33.877 62.1426 32.9996 63.489 31.5407C64.8354 30.0819 65.6072 28.0416 65.6072 25.7157C65.6072 23.3887 64.8359 21.3478 63.489 19.8889C62.1426 18.4295 60.2211 17.5521 57.9212 17.5521C55.5285 17.5521 53.6075 18.4757 52.2848 19.9582C50.9621 21.4401 50.237 23.481 50.237 25.7151ZM70.8185 38.4508H68.0398H65.2611V36.9216V35.3924C64.3837 36.5224 63.2871 37.4529 61.9575 38.1013C60.6278 38.7497 59.0657 39.1148 57.2567 39.1148C53.6941 39.1148 50.5104 37.7119 48.2169 35.3359C45.9233 32.9592 44.521 29.6095 44.521 25.7146C44.521 21.8191 45.9239 18.4682 48.2169 16.0915C50.5099 13.7149 53.6941 12.312 57.2567 12.312C59.0651 12.312 60.6278 12.6847 61.9575 13.3394C63.2871 13.9947 64.3837 14.9321 65.2611 16.0621V14.519V12.976H68.0398H70.8185V25.7128V38.4508Z" fill="#4E2D82"/>
<path d="M93.6951 18.0298H88.8167H83.9383V23.5739V29.118C83.9383 30.833 84.39 32.023 85.1208 32.7839C85.8517 33.5448 86.8623 33.877 87.9791 33.877C88.8427 33.877 89.7466 33.6843 90.624 33.3723C91.5014 33.0596 92.3522 32.6276 93.1108 32.1482L94.2143 34.3685L95.3178 36.5888C94.2939 37.2804 93.1379 37.9121 91.8383 38.3707C90.5386 38.8293 89.0965 39.1154 87.5004 39.1154C84.6155 39.1154 82.3289 38.3372 80.7633 36.7117C79.1977 35.0861 78.3538 32.6131 78.3538 29.2224V23.627V18.0298H75.8151H73.2764V15.5038V12.9783H75.8151H78.3538V8.27235V3.56641H81.1463H83.9389V8.27235V12.9783H88.8173H93.6957V15.5043L93.6951 18.0298Z" fill="#4E2D82"/>
<path d="M103.118 16.0089C104.142 14.5466 105.438 13.6225 106.801 13.0635C108.163 12.5051 109.592 12.3119 110.882 12.3119C113.913 12.3119 116.499 13.356 118.327 15.1442C120.155 16.9324 121.226 19.4654 121.226 22.4431V30.4463V38.4495H118.433H115.641V31.3635V24.278C115.641 22.1379 115.089 20.4697 114.072 19.3367C113.055 18.2032 111.573 17.605 109.712 17.605C107.917 17.605 106.269 18.1963 105.069 19.3333C103.869 20.4697 103.118 22.1518 103.118 24.3323V31.3918V38.4513H100.327H97.5352V20.9992V3.54834H100.327H103.118V9.7789V16.0089Z" fill="#4E2D82"/>
<path d="M130.792 23.5352H137.4H144.007C143.702 21.5537 142.971 19.9847 141.874 18.9112C140.778 17.8377 139.315 17.2597 137.547 17.2597C135.566 17.2597 134.024 17.8977 132.904 19.0012C131.782 20.1047 131.084 21.6737 130.792 23.5352ZM149.697 25.688C149.697 26.0474 149.684 26.4056 149.664 26.7546C149.644 27.1036 149.618 27.4422 149.592 27.7612H140.179H130.766C131.138 30.0484 132.128 31.6705 133.478 32.7204C134.827 33.7703 136.535 34.2491 138.344 34.2491C139.62 34.2491 140.936 33.9964 142.196 33.5343C143.456 33.0723 144.66 32.4008 145.71 31.5632L147.092 33.5447L148.474 35.5262C146.919 36.8553 145.265 37.7529 143.516 38.3176C141.768 38.8829 139.927 39.1154 137.999 39.1154C134.183 39.1154 130.926 37.7857 128.623 35.4455C126.32 33.1052 124.971 29.7548 124.971 25.7128C124.971 21.7245 126.266 18.3747 128.5 16.0212C130.733 13.6676 133.904 12.312 137.653 12.312C141.216 12.312 144.221 13.6682 146.338 16.0177C148.456 18.3672 149.684 21.7124 149.697 25.688Z" fill="#4E2D82"/>
<path d="M177.333 22.4435V30.4468V38.45H174.542H171.751V31.364V24.2785C171.751 22.1378 171.199 20.469 170.181 19.3355C169.164 18.202 167.681 17.6038 165.819 17.6038C164.025 17.6038 162.376 18.1956 161.176 19.3326C159.976 20.4696 159.225 22.1517 159.225 24.3327V31.3922V38.4517H156.434H153.643V25.7149V12.9792H156.408H159.173V14.5344V16.0895C160.196 14.5874 161.499 13.6431 162.871 13.0749C164.243 12.5061 165.686 12.3135 166.989 12.3135C170.021 12.3135 172.607 13.3576 174.435 15.1458C176.263 16.934 177.333 19.4664 177.333 22.4435Z" fill="#4E2D82"/>
<path d="M186.692 25.7151C186.692 27.9487 187.417 29.989 188.74 31.471C190.063 32.9529 191.984 33.877 194.376 33.877C196.676 33.877 198.598 32.9996 199.944 31.5407C201.29 30.0819 202.062 28.0416 202.062 25.7157C202.062 23.3887 201.291 21.3478 199.944 19.8889C198.598 18.4295 196.676 17.5521 194.376 17.5521C191.984 17.5521 190.063 18.4757 188.74 19.9582C187.417 21.4401 186.692 23.481 186.692 25.7151ZM207.274 38.4508H204.495H201.716V36.9216V35.3924C200.839 36.5224 199.742 37.4529 198.413 38.1013C197.083 38.7497 195.521 39.1148 193.712 39.1148C190.149 39.1148 186.966 37.7119 184.672 35.3359C182.378 32.9592 180.976 29.6095 180.976 25.7146C180.976 21.8191 182.379 18.4682 184.672 16.0915C186.965 13.7149 190.149 12.312 193.712 12.312C195.52 12.312 197.083 12.6847 198.413 13.3394C199.742 13.9947 200.839 14.9321 201.716 16.0621V14.519V12.976H204.495H207.274V25.7128V38.4508Z" fill="#4E2D82"/>
<path d="M216.025 17.7637C217.009 16.115 218.378 14.9319 219.931 14.1607C221.483 13.3894 223.217 13.03 224.933 13.03C228.07 13.03 230.703 14.0003 232.552 15.7453C234.4 17.4902 235.465 20.0093 235.465 23.1076V30.7786V38.4495H233.949H232.433V31.2441V24.0392C232.433 21.5132 231.701 19.4792 230.332 18.0769C228.963 16.6746 226.955 15.9033 224.403 15.9033C222.049 15.9033 219.955 16.7473 218.449 18.2061C216.944 19.665 216.026 21.7387 216.026 24.1979V31.3237V38.4495H214.511H212.996V20.9992V3.54834H214.511H216.026V10.6563V17.7637H216.025Z" fill="#4E2D82"/>
<path d="M242.855 24.4391H251.802H260.75C260.524 21.8456 259.527 19.6651 257.998 18.133C256.469 16.6009 254.408 15.7166 252.055 15.7166C249.515 15.7166 247.361 16.6274 245.77 18.1728C244.178 19.7188 243.147 21.8993 242.855 24.4391ZM263.834 25.7942C263.834 26.0203 263.828 26.2395 263.817 26.4489C263.807 26.6583 263.794 26.8579 263.78 27.0436H253.29H242.801C243.027 29.9556 244.163 32.2491 245.885 33.8147C247.607 35.3803 249.914 36.2178 252.48 36.2178C254.221 36.2178 255.783 35.8723 257.186 35.2539C258.588 34.6355 259.831 33.7449 260.935 32.6546L261.746 33.6924L262.558 34.7302C260.975 36.3378 259.313 37.3681 257.595 37.9963C255.877 38.6245 254.102 38.8506 252.293 38.8506C248.637 38.8506 245.493 37.5342 243.263 35.2637C241.032 32.9933 239.716 29.7692 239.716 25.9539C239.716 22.1785 241.052 18.9481 243.269 16.6609C245.486 14.3737 248.584 13.0308 252.108 13.0308C255.444 13.0308 258.356 14.3541 260.443 16.6107C262.531 18.8673 263.794 22.0585 263.834 25.7942Z" fill="#4E2D82"/>
<path d="M269.65 25.9539C269.65 28.7724 270.667 31.2846 272.396 33.0925C274.124 34.9003 276.564 36.0038 279.409 36.0038C282.24 36.0038 284.673 34.9269 286.398 33.1323C288.123 31.3377 289.14 28.8249 289.14 25.9539C289.14 23.083 288.123 20.5633 286.398 18.7618C284.673 16.9603 282.24 15.8764 279.409 15.8764C276.537 15.8764 274.097 16.9799 272.375 18.7918C270.653 20.6031 269.65 23.1228 269.65 25.9539ZM291.985 38.4508H290.483H288.981V36.0442V33.6376C287.971 35.2066 286.628 36.5097 284.969 37.4206C283.31 38.3314 281.336 38.8506 279.063 38.8506C275.553 38.8506 272.429 37.4875 270.182 35.1939C267.935 32.9004 266.566 29.6764 266.566 25.9534C266.566 22.2304 267.935 19 270.182 16.7001C272.429 14.4002 275.553 13.0308 279.063 13.0308C281.336 13.0308 283.31 13.5557 284.969 14.4694C286.627 15.3832 287.97 16.6868 288.981 18.2432V15.836V13.4288H290.483H291.985V25.9401V38.4508Z" fill="#4E2D82"/>
<path d="M301.216 38.4507H299.7H298.184V20.9998V3.54834H299.7H301.216V20.9998V38.4507Z" fill="#4E2D82"/>
<path d="M324.466 16.195H318.696H312.925V23.0157V29.8364C312.925 31.9494 313.484 33.4913 314.458 34.5054C315.432 35.5189 316.822 36.0046 318.485 36.0046C319.561 36.0046 320.591 35.8183 321.535 35.486C322.479 35.1538 323.336 34.675 324.067 34.0901L324.784 35.2201L325.502 36.3502C324.611 37.0943 323.548 37.719 322.332 38.158C321.115 38.597 319.746 38.8497 318.243 38.8497C315.637 38.8497 313.55 38.1251 312.114 36.6426C310.679 35.1601 309.895 32.9196 309.895 29.8883V23.0411V16.195H307.023H304.15V14.8123V13.4296H307.023H309.895V8.4975V3.56543H311.41H312.925V8.4975V13.4296H318.696H324.466V14.8123V16.195Z" fill="#4E2D82"/>
<path d="M331.422 17.7637C332.406 16.115 333.775 14.9319 335.327 14.1607C336.879 13.3894 338.614 13.03 340.329 13.03C343.467 13.03 346.1 14.0003 347.947 15.7453C349.795 17.4902 350.859 20.0093 350.859 23.1076V30.7786V38.4495H349.343H347.827V31.2441V24.0392C347.827 21.5132 347.096 19.4792 345.727 18.0769C344.358 16.6746 342.351 15.9033 339.798 15.9033C337.444 15.9033 335.35 16.7473 333.844 18.2061C332.339 19.665 331.422 21.7387 331.422 24.1979V31.3237V38.4495H329.906H328.39V20.9992V3.54834H329.906H331.422V10.6563V17.7637Z" fill="#4E2D82"/>
<path d="M22.1064 12.1227C22.1064 12.8051 22.3833 13.4229 22.8304 13.87C23.2775 14.317 23.8953 14.5933 24.5771 14.5933C25.2589 14.5933 25.8767 14.317 26.3244 13.87C26.772 13.4229 27.0489 12.8057 27.0489 12.1227C27.0489 11.4408 26.772 10.823 26.3244 10.3754C25.8767 9.92777 25.2589 9.65088 24.5771 9.65088C23.8953 9.65088 23.278 9.92777 22.8304 10.3754C22.3828 10.823 22.1064 11.4408 22.1064 12.1227Z" fill="#7A9A01"/>
<path d="M12.4438 9.6508C12.4438 11.4581 12.8055 13.1811 13.4603 14.7513C14.115 16.3215 15.0622 17.7388 16.2338 18.9364C17.4053 17.7394 18.3531 16.3215 19.0073 14.7513C19.662 13.1811 20.0237 11.4586 20.0237 9.6508C20.0237 7.84295 19.662 6.12047 19.0073 4.55028C18.3525 2.9801 17.4053 1.56278 16.2338 0.365234C15.0622 1.5622 14.1144 2.9801 13.4603 4.55028C12.8061 6.12047 12.4438 7.84295 12.4438 9.6508Z" fill="#9BC620"/>
<path d="M21.4887 22.0157C20.6205 23.1982 19.8827 24.4367 19.2735 25.7139C18.5906 27.145 18.0679 28.6252 17.7028 30.1297C17.4022 31.367 17.2078 32.6205 17.1179 33.8769C17.0008 35.5105 17.059 37.1494 17.2892 38.764C18.6811 38.5355 20.0529 38.179 21.3842 37.6974C22.775 37.1944 24.122 36.5552 25.4037 35.7828C26.8741 34.8968 28.258 33.8354 29.5225 32.6032C30.4154 31.7333 31.249 30.7786 32.011 29.7403C32.9316 28.4862 33.7058 27.1693 34.3357 25.8102C34.9656 24.4511 35.4519 23.05 35.7974 21.6269C36.1239 20.2817 36.3252 18.9168 36.4037 17.5503C36.4908 16.0257 36.4256 14.4987 36.211 12.9932C34.7977 13.2251 33.4052 13.5891 32.0548 14.0817C30.686 14.5812 29.3592 15.2129 28.0965 15.9743C26.8551 16.7225 25.6754 17.5953 24.5771 18.5903C23.4557 19.6056 22.4191 20.7483 21.4887 22.0157Z" fill="#7A9A01"/>
<path d="M12.089 17.823C10.7057 15.9021 9.00974 14.3423 7.12574 13.165C5.24175 11.9876 3.16912 11.1922 1.03132 10.7993C0.726163 12.9515 0.823651 15.1695 1.34282 17.3293C1.86198 19.4896 2.80398 21.5916 4.18727 23.5131C5.42692 25.2344 6.9175 26.6644 8.5696 27.7893C10.2217 28.9142 12.0359 29.7339 13.9222 30.2351V34.1398V38.0445C13.9222 38.2424 14.003 38.4224 14.1327 38.5522C14.2631 38.682 14.4431 38.7627 14.6415 38.7627C14.8394 38.7627 15.0194 38.682 15.1492 38.5522C15.2789 38.4224 15.3597 38.2424 15.3597 38.0445V33.8693V29.6941C15.3603 29.6606 15.3603 29.6243 15.3603 29.5856C15.3603 29.547 15.3597 29.5054 15.3597 29.4627H15.3586C15.516 27.472 15.3326 25.4427 14.7932 23.471C14.2539 21.4999 13.358 19.5847 12.089 17.823Z" fill="#9BC620"/>
</svg>
